# xmcd
#
# Track frame offsets:
#       150
#       602
#       19727
#       36977
#       51227
#       64052
#       79577
#       93152
#       108002
#       120077
#       135602
#       171077
#
# Disc length: 2481 seconds
#
# Revision: 0
# Processed by: cddbd v1.4PL0 Copyright (c) Steve Scherf et al.
# Submitted via: WhereIsIt 3.22
#
DISCID=8709af0c
DTITLE=The Blues Brothers - The Blues Brothers Soundtrack
DYEAR=1900
DGENRE=
TTITLE0=SHe Caught The Katy
TTITLE1=Peter Gunn Theme
TTITLE2=Gimme Some Lovin'
TTITLE3=Shake A Tail Feather
TTITLE4=Everybody Needs Somebody To Love
TTITLE5=The Old Landmark
TTITLE6=Think
TTITLE7=Theme From Rawhide
TTITLE8=Minnie The Moocher
TTITLE9=Sweet Home Chicago
TTITLE10=Jailhouse Rock
TTITLE11=
EXTD=
EXTT0=
EXTT1=
EXTT2=
EXTT3=
EXTT4=
EXTT5=
EXTT6=
EXTT7=
EXTT8=
EXTT9=
EXTT10=
EXTT11=
PLAYORDER=
